<svg id="Layer_1" data-name="Layer 1" xmlns="http://www.w3.org/2000/svg" xmlns:xlink="http://www.w3.org/1999/xlink" viewBox="0 0 911.73 1006.34"><defs><style>.cls-1{fill:url(#New_Gradient_Swatch_2);}.cls-2{fill:url(#New_Gradient_Swatch_2-3);}.cls-3{fill:url(#New_Gradient_Swatch_2-4);}.cls-4{fill:url(#New_Gradient_Swatch_2-5);}.cls-5{fill:url(#New_Gradient_Swatch_2-6);}.cls-6{fill:url(#New_Gradient_Swatch_2-7);}.cls-7{fill:url(#New_Gradient_Swatch_2-8);}.cls-8{fill:url(#New_Gradient_Swatch_2-9);}.cls-9{fill:url(#New_Gradient_Swatch_2-10);}.cls-10{fill:url(#linear-gradient);}.cls-11{fill:url(#linear-gradient-2);}.cls-12{fill:url(#linear-gradient-3);}.cls-13{fill:url(#linear-gradient-4);}.cls-14{fill:url(#linear-gradient-5);}.cls-15{fill:url(#linear-gradient-6);}.cls-16{fill:url(#linear-gradient-7);}.cls-17{fill:url(#linear-gradient-8);}.cls-18{fill:url(#linear-gradient-9);}.cls-19{fill:url(#linear-gradient-10);}.cls-20{fill:url(#linear-gradient-11);}.cls-21{fill:url(#linear-gradient-12);}.cls-22{fill:url(#linear-gradient-13);}.cls-23{fill:url(#linear-gradient-14);}.cls-24{fill:url(#linear-gradient-15);}.cls-25{fill:url(#linear-gradient-16);}.cls-26{fill:url(#linear-gradient-17);}.cls-27{fill:url(#linear-gradient-18);}.cls-28{fill:url(#linear-gradient-19);}.cls-29{fill:url(#linear-gradient-20);}.cls-30{fill:url(#linear-gradient-21);}.cls-31{fill:url(#linear-gradient-22);}.cls-32{fill:url(#linear-gradient-23);}.cls-33{fill:url(#linear-gradient-24);}.cls-34{fill:url(#linear-gradient-25);}.cls-35{fill:url(#linear-gradient-26);}.cls-36{fill:url(#linear-gradient-27);}.cls-37{fill:url(#linear-gradient-28);}.cls-38{fill:url(#linear-gradient-29);}.cls-39{fill:url(#linear-gradient-30);}.cls-40{fill:url(#linear-gradient-31);}.cls-41{fill:url(#linear-gradient-32);}.cls-42{fill:url(#linear-gradient-33);}.cls-43{fill:url(#linear-gradient-34);}.cls-44{fill:url(#linear-gradient-35);}</style><linearGradient id="New_Gradient_Swatch_2" x1="420.46" y1="792.3" x2="429.25" y2="792.3" gradientUnits="userSpaceOnUse"><stop offset="0" stop-color="#0075ff"/><stop offset="0.38" stop-color="#1759ff"/><stop offset="0.66" stop-color="#2448ff"/></linearGradient><linearGradient id="New_Gradient_Swatch_2-3" x1="7.27" y1="793.47" x2="452.51" y2="793.47" xlink:href="#New_Gradient_Swatch_2"/><linearGradient id="New_Gradient_Swatch_2-4" x1="139.96" y1="793.47" x2="447.22" y2="793.47" xlink:href="#New_Gradient_Swatch_2"/><linearGradient id="New_Gradient_Swatch_2-5" x1="0" y1="792.61" x2="452.99" y2="792.61" xlink:href="#New_Gradient_Swatch_2"/><linearGradient id="New_Gradient_Swatch_2-6" x1="0" y1="792.61" x2="452.99" y2="792.61" xlink:href="#New_Gradient_Swatch_2"/><linearGradient id="New_Gradient_Swatch_2-7" x1="135" y1="792.61" x2="447.61" y2="792.61" xlink:href="#New_Gradient_Swatch_2"/><linearGradient id="New_Gradient_Swatch_2-8" x1="6" y1="793.8" x2="452.6" y2="793.8" xlink:href="#New_Gradient_Swatch_2"/><linearGradient id="New_Gradient_Swatch_2-9" x1="6" y1="793.8" x2="452.6" y2="793.8" xlink:href="#New_Gradient_Swatch_2"/><linearGradient id="New_Gradient_Swatch_2-10" x1="139.1" y1="793.8" x2="447.29" y2="793.8" xlink:href="#New_Gradient_Swatch_2"/><linearGradient id="linear-gradient" x1="-80.12" y1="163.79" x2="90.84" y2="98.04" gradientUnits="userSpaceOnUse"><stop offset="0" stop-color="#0075ff"/><stop offset="0.17" stop-color="#0f63ff"/><stop offset="0.38" stop-color="#1b54ff"/><stop offset="0.63" stop-color="#224bff"/><stop offset="1" stop-color="#2448ff"/></linearGradient><linearGradient id="linear-gradient-2" x1="230.06" y1="193.15" x2="230.79" y2="192.87" xlink:href="#linear-gradient"/><linearGradient id="linear-gradient-3" x1="70.84" y1="139.03" x2="305.79" y2="48.67" xlink:href="#linear-gradient"/><linearGradient id="linear-gradient-4" x1="-236.41" y1="305.23" x2="57.36" y2="192.24" xlink:href="#linear-gradient"/><linearGradient id="linear-gradient-5" x1="184.75" y1="224.3" x2="241.36" y2="202.53" gradientTransform="translate(141.71 -96.34) rotate(31.56)" xlink:href="#linear-gradient"/><linearGradient id="linear-gradient-6" x1="7.27" y1="212.91" x2="401.89" y2="61.14" xlink:href="#linear-gradient"/><linearGradient id="linear-gradient-7" x1="-93.87" y1="251.81" x2="57.23" y2="193.7" xlink:href="#linear-gradient"/><linearGradient id="linear-gradient-8" x1="-39.66" y1="229.5" x2="727.61" y2="-65.59" xlink:href="#linear-gradient"/><linearGradient id="linear-gradient-9" x1="-236.44" y1="305.19" x2="57.34" y2="192.2" xlink:href="#linear-gradient"/><linearGradient id="linear-gradient-10" x1="199.1" y1="538.62" x2="290.39" y2="503.5" xlink:href="#linear-gradient"/><linearGradient id="linear-gradient-11" x1="38.37" y1="200.41" x2="56.94" y2="193.27" xlink:href="#linear-gradient"/><linearGradient id="linear-gradient-12" x1="-39.83" y1="230.1" x2="57.07" y2="192.83" xlink:href="#linear-gradient"/><linearGradient id="linear-gradient-13" x1="139.5" y1="534.26" x2="291.5" y2="475.8" xlink:href="#linear-gradient"/><linearGradient id="linear-gradient-14" x1="56.81" y1="193.13" x2="57.13" y2="193" xlink:href="#linear-gradient"/><linearGradient id="linear-gradient-15" x1="-39.41" y1="230.13" x2="57.13" y2="193" xlink:href="#linear-gradient"/><linearGradient id="linear-gradient-16" x1="-461.25" y1="172.62" x2="-290.3" y2="106.87" gradientTransform="matrix(-1, 0, 0, 1, 530.59, -8.83)" xlink:href="#linear-gradient"/><linearGradient id="linear-gradient-17" x1="-151.08" y1="201.98" x2="-150.35" y2="201.7" gradientTransform="matrix(-1, 0, 0, 1, 530.59, -8.83)" xlink:href="#linear-gradient"/><linearGradient id="linear-gradient-18" x1="-310.3" y1="147.86" x2="-75.35" y2="57.5" gradientTransform="matrix(-1, 0, 0, 1, 530.59, -8.83)" xlink:href="#linear-gradient"/><linearGradient id="linear-gradient-19" x1="-617.54" y1="314.06" x2="-323.77" y2="201.07" gradientTransform="matrix(-1, 0, 0, 1, 530.59, -8.83)" xlink:href="#linear-gradient"/><linearGradient id="linear-gradient-20" x1="-380.52" y1="224.3" x2="-323.91" y2="202.53" gradientTransform="matrix(-0.52, -0.85, -0.85, 0.52, 1041.71, -179.51)" xlink:href="#linear-gradient"/><linearGradient id="linear-gradient-21" x1="-373.86" y1="221.74" x2="20.76" y2="69.97" gradientTransform="matrix(-1, 0, 0, 1, 530.59, -8.83)" xlink:href="#linear-gradient"/><linearGradient id="linear-gradient-22" x1="-475.01" y1="260.64" x2="-323.91" y2="202.53" gradientTransform="matrix(-1, 0, 0, 1, 530.59, -8.83)" xlink:href="#linear-gradient"/><linearGradient id="linear-gradient-23" x1="-420.79" y1="238.33" x2="346.47" y2="-56.76" gradientTransform="matrix(-1, 0, 0, 1, 530.59, -8.83)" xlink:href="#linear-gradient"/><linearGradient id="linear-gradient-24" x1="-617.57" y1="314.02" x2="-323.79" y2="201.03" gradientTransform="matrix(-1, 0, 0, 1, 530.59, -8.83)" xlink:href="#linear-gradient"/><linearGradient id="linear-gradient-25" x1="-182.03" y1="547.44" x2="-90.74" y2="512.33" gradientTransform="matrix(-1, 0, 0, 1, 530.59, -8.83)" xlink:href="#linear-gradient"/><linearGradient id="linear-gradient-26" x1="-342.76" y1="209.24" x2="-324.2" y2="202.1" gradientTransform="matrix(-1, 0, 0, 1, 530.59, -8.83)" xlink:href="#linear-gradient"/><linearGradient id="linear-gradient-27" x1="-420.97" y1="238.93" x2="-324.07" y2="201.66" gradientTransform="matrix(-1, 0, 0, 1, 530.59, -8.83)" xlink:href="#linear-gradient"/><linearGradient id="linear-gradient-28" x1="-241.63" y1="543.09" x2="-89.64" y2="484.63" gradientTransform="matrix(-1, 0, 0, 1, 530.59, -8.83)" xlink:href="#linear-gradient"/><linearGradient id="linear-gradient-29" x1="-324.33" y1="201.95" x2="-324.01" y2="201.83" gradientTransform="matrix(-1, 0, 0, 1, 530.59, -8.83)" xlink:href="#linear-gradient"/><linearGradient id="linear-gradient-30" x1="-420.55" y1="238.96" x2="-324.01" y2="201.83" gradientTransform="matrix(-1, 0, 0, 1, 530.59, -8.83)" xlink:href="#linear-gradient"/><linearGradient id="linear-gradient-31" x1="599.23" y1="935.36" x2="716.81" y2="935.36" gradientUnits="userSpaceOnUse"><stop offset="0" stop-color="#b42620"/><stop offset="1" stop-color="#b5263e"/></linearGradient><linearGradient id="linear-gradient-32" x1="5.12" y1="926.75" x2="147.02" y2="926.75" xlink:href="#linear-gradient-31"/><linearGradient id="linear-gradient-33" x1="386.76" y1="935.12" x2="527.79" y2="935.12" xlink:href="#linear-gradient-31"/><linearGradient id="linear-gradient-34" x1="784.46" y1="926.53" x2="890.8" y2="926.53" xlink:href="#linear-gradient-31"/><linearGradient id="linear-gradient-35" x1="608.88" y1="926.53" x2="715.41" y2="926.53" xlink:href="#linear-gradient-31"/></defs><polygon class="cls-1" points="424.86 792.3 424.86 792.3 424.86 792.3 424.86 792.3"/><polygon class="cls-1" points="424.86 792.3 424.86 792.3 424.86 792.3 424.86 792.3"/><polygon class="cls-2" points="426.3 794.63 425.09 792.93 424.86 792.3 424.98 792.49 426.3 794.63"/><polygon class="cls-3" points="426.3 794.63 425.09 792.93 424.86 792.3 424.98 792.49 426.3 794.63"/><polygon class="cls-4" points="425.09 792.93 424.86 792.3 424.86 792.3 425.09 792.93"/><polygon class="cls-5" points="425.09 792.93 424.86 792.3 424.86 792.3 425.09 792.93"/><polygon class="cls-6" points="425.09 792.93 424.86 792.3 424.86 792.3 425.09 792.93"/><polygon class="cls-7" points="426.33 794.68 425.09 792.93 426.3 794.63 426.33 794.68"/><polygon class="cls-8" points="426.33 794.68 425.09 792.93 426.3 794.63 426.33 794.68"/><polygon class="cls-9" points="426.33 794.68 425.09 792.93 426.3 794.63 426.33 794.68"/><polygon class="cls-10" points="135 0 132.76 6.68 132.76 6.69 130.03 13.37 57.27 192 57 192 0.69 189.04 135 0"/><polygon class="cls-11" points="230.45 194 230.1 192.99 230.45 192 230 193 230.45 194"/><polygon class="cls-12" points="295.21 7.48 295.29 7.26 297.83 0 135 0 132.76 6.68 132.76 6.69 130.03 13.37 57.27 192 230.45 192 295.21 7.48"/><rect class="cls-13" x="57.13" y="191.97" height="0.71"/><rect class="cls-14" x="241.31" y="202.22" height="0.66" transform="translate(-254.46 147.44) rotate(-31.56)"/><polygon class="cls-15" points="57 194 57.34 194 57 193.44 57 194"/><polygon class="cls-16" points="57 194 57.34 194 57 193.44 57 194"/><polygon class="cls-17" points="57 192 57 192.66 57.27 192 57 192"/><polygon class="cls-18" points="57 192 57 192.66 57.27 192 57 192"/><polygon class="cls-19" points="456.66 838.66 456.08 836.98 456.02 836.83 455.8 836.21 455.8 836.2 455 833.92 454.95 833.77 297.12 383.99 230.45 194 230 193 230.45 192 57.27 192 57 192.66 57 193.44 57.34 194 424.86 792.3 424.98 792.49 426.3 794.63 426.33 794.68 426.35 794.72 427.09 795.93 440.18 817.23 440.93 818.45 440.94 818.46 440.97 818.5 441.01 818.57 453.28 838.55 453.34 838.65 454.07 839.84 454.38 840.35 455 841.36 455.06 841.26 455.23 841 456.73 838.86 456.66 838.66"/><polygon class="cls-20" points="56.81 193.13 57 193.44 57 193.44 56.81 193.13"/><polygon class="cls-21" points="57 192.66 56.81 193.13 57 192.66 57 192.66"/><polygon class="cls-22" points="427.09 795.93 426.35 794.72 426.33 794.68 425.09 792.93 424.86 792.3 57.34 194 57 194 57 193.44 56.81 193.13 57 192.66 57 192 0.69 189.04 0 190.01 0.72 191.04 134.39 381.51 440.18 817.23 427.09 795.93"/><polygon class="cls-23" points="57 192.66 56.81 193.13 57 193.44 57 192.66"/><polygon class="cls-24" points="57 192.66 56.81 193.13 57 193.44 57 192.66"/><polygon class="cls-25" points="776.73 0 778.97 6.68 778.97 6.69 781.7 13.37 854.46 192 854.73 192 911.04 189.04 776.73 0"/><polygon class="cls-26" points="681.28 194 681.63 192.99 681.28 192 681.73 193 681.28 194"/><polygon class="cls-27" points="616.52 7.48 616.44 7.26 613.9 0 776.73 0 778.97 6.68 778.97 6.69 781.7 13.37 854.46 192 681.28 192 616.52 7.48"/><rect class="cls-28" x="854.59" y="191.97" height="0.71"/><rect class="cls-29" x="1038.36" y="202.55" width="0.66" transform="translate(138.31 972.75) rotate(-58.44)"/><polygon class="cls-30" points="854.73 194 854.39 194 854.73 193.44 854.73 194"/><polygon class="cls-31" points="854.73 194 854.39 194 854.73 193.44 854.73 194"/><polygon class="cls-32" points="854.73 192 854.73 192.66 854.46 192 854.73 192"/><polygon class="cls-33" points="854.73 192 854.73 192.66 854.46 192 854.73 192"/><polygon class="cls-34" points="455.07 838.66 455.65 836.98 455.71 836.83 455.93 836.21 455.93 836.2 456.73 833.92 456.78 833.77 614.61 383.99 681.28 194 681.73 193 681.28 192 854.46 192 854.73 192.66 854.73 193.44 854.39 194 486.87 792.3 486.75 792.49 485.43 794.63 485.4 794.68 485.38 794.72 484.64 795.93 471.55 817.23 470.8 818.45 470.79 818.46 470.76 818.5 470.72 818.57 458.45 838.55 458.39 838.65 457.66 839.84 457.35 840.35 456.73 841.36 456.67 841.26 456.5 841 455 838.86 455.07 838.66"/><polygon class="cls-35" points="854.92 193.13 854.73 193.44 854.73 193.44 854.92 193.13"/><polygon class="cls-36" points="854.73 192.66 854.92 193.13 854.73 192.66 854.73 192.66"/><polygon class="cls-37" points="484.64 795.93 485.38 794.72 485.4 794.68 486.64 792.93 486.87 792.3 854.39 194 854.73 194 854.73 193.44 854.92 193.13 854.73 192.66 854.73 192 911.04 189.04 911.73 190.01 911.01 191.04 777.34 381.51 471.55 817.23 484.64 795.93"/><polygon class="cls-38" points="854.73 192.66 854.92 193.13 854.73 193.44 854.73 192.66"/><polygon class="cls-39" points="854.73 192.66 854.92 193.13 854.73 193.44 854.73 192.66"/><path class="cls-40" d="M716.81,973.81a39.37,39.37,0,0,1-3.38,16.29,41.62,41.62,0,0,1-9.21,13.16A42.11,42.11,0,0,1,690.5,1012a44.11,44.11,0,0,1-16.63,3.15H599.23V855.55h74.41a31.47,31.47,0,0,1,15.06,3.6,37.67,37.67,0,0,1,11.47,9.33,42.84,42.84,0,0,1,7.31,13,43.94,43.94,0,0,1,2.58,14.72A42.4,42.4,0,0,1,704,918.5a36.05,36.05,0,0,1-16.86,14.84,39.74,39.74,0,0,1,21.7,15.17A42.4,42.4,0,0,1,716.81,973.81ZM610.69,865.89v63.85h58.45a26.27,26.27,0,0,0,11.92-2.7,30.91,30.91,0,0,0,9.33-7.08,33.92,33.92,0,0,0,8.43-22.14,34.73,34.73,0,0,0-2.14-12.26,33.67,33.67,0,0,0-5.84-10.11,27.58,27.58,0,0,0-8.88-7,25.34,25.34,0,0,0-11.47-2.59Zm94.65,106.34a35,35,0,0,0-8.54-22.82,30.33,30.33,0,0,0-9.56-7.3,26.46,26.46,0,0,0-11.8-2.7H610.69v65.42h63.18a28.89,28.89,0,0,0,12.47-2.7,31,31,0,0,0,9.9-7.3,37,37,0,0,0,6.63-10.46A31,31,0,0,0,705.34,972.23Z" transform="translate(-184.14 -8.83)"/><polygon class="cls-41" points="136.44 847.51 76.07 991.96 15.55 847.16 5.12 851.17 70.9 1006.34 81.47 1006.34 147.02 851.21 136.44 847.51"/><path class="cls-42" d="M527.79,1010,462.54,855.55h-9.89l-65.89,154.92,10.57,4.21,22.05-52.12h76.21L517.35,1014ZM422.07,953.12l35.52-83.63,34.85,83.63Z" transform="translate(-184.14 -8.83)"/><polygon class="cls-43" points="795.93 929.68 877.09 929.68 877.09 919.79 795.93 919.79 795.93 857.06 888.78 857.06 888.78 856.92 882.22 846.72 784.46 846.72 784.46 1006.34 882.34 1006.34 890.8 996.41 890.8 996 795.93 996 795.93 929.68"/><polygon class="cls-44" points="620.35 996 620.35 846.72 620.06 846.72 608.88 854.18 608.88 1006.34 706.41 1006.34 715.4 996 620.35 996"/></svg>